<svg id="Layer_1" data-name="Layer 1" xmlns="http://www.w3.org/2000/svg" xmlns:xlink="http://www.w3.org/1999/xlink" viewBox="0 0 1920 1080"><defs><style>.cls-1{fill:#009245;}.cls-2{fill:#754c24;}.cls-3{fill:#603813;}.cls-4{fill:#42210b;}.cls-5{fill:#8c6239;}.cls-6{fill:#006837;}.cls-7{fill:#39b54a;}.cls-8{fill:url(#linear-gradient);}.cls-9{fill:url(#linear-gradient-2);}.cls-10{fill:url(#linear-gradient-3);}.cls-11{fill:none;stroke:#e6e6e6;stroke-miterlimit:10;stroke-width:7px;}.cls-12{fill:#008237;}.cls-13{fill:#002037;}.cls-14{fill:url(#linear-gradient-4);}.cls-15{fill:#eb8398;}.cls-16{fill:#b3b3b3;}.cls-17{fill:#ff0;}.cls-18{fill:#001300;}.cls-19{fill:#e6e6e6;}.cls-20{fill:#f2f2f2;}.cls-21{fill:#ccc;}.cls-22{fill:#fff;}.cls-23{fill:#a67c52;}.cls-24{fill:url(#linear-gradient-5);}.cls-25{fill:url(#linear-gradient-6);}.cls-26{fill:url(#linear-gradient-7);}.cls-27{fill:url(#linear-gradient-8);}.cls-28{fill:url(#linear-gradient-9);}.cls-29{fill:#736357;}.cls-30{fill:#534741;}</style><linearGradient id="linear-gradient" x1="1362.98" y1="259.47" x2="1441.26" y2="337.75" gradientUnits="userSpaceOnUse"><stop offset="0" stop-color="#ff0"/><stop offset="0.02" stop-color="#edf404"/><stop offset="0.09" stop-color="#bcd70f"/><stop offset="0.17" stop-color="#8fbd18"/><stop offset="0.25" stop-color="#68a620"/><stop offset="0.34" stop-color="#489327"/><stop offset="0.43" stop-color="#2e832d"/><stop offset="0.53" stop-color="#197732"/><stop offset="0.64" stop-color="#0b6e35"/><stop offset="0.77" stop-color="#036a36"/><stop offset="1" stop-color="#006837"/></linearGradient><linearGradient id="linear-gradient-2" x1="1560.78" y1="112.81" x2="1560.78" y2="266.3" gradientUnits="userSpaceOnUse"><stop offset="0" stop-color="#006837"/><stop offset="0.37" stop-color="#026937"/><stop offset="0.51" stop-color="#096d35"/><stop offset="0.6" stop-color="#147433"/><stop offset="0.68" stop-color="#257e2f"/><stop offset="0.75" stop-color="#3b8b2a"/><stop offset="0.8" stop-color="#579b24"/><stop offset="0.86" stop-color="#77ae1d"/><stop offset="0.91" stop-color="#9dc515"/><stop offset="0.95" stop-color="#c8de0c"/><stop offset="0.99" stop-color="#f6fa02"/><stop offset="1" stop-color="#ff0"/></linearGradient><linearGradient id="linear-gradient-3" x1="1916.03" y1="-714.74" x2="1916.03" y2="-652.35" gradientTransform="translate(171.08 1708.76) rotate(-26.43)" gradientUnits="userSpaceOnUse"><stop offset="0" stop-color="#009245"/><stop offset="0.24" stop-color="#008440"/><stop offset="0.7" stop-color="#006f39"/><stop offset="1" stop-color="#006837"/></linearGradient><linearGradient id="linear-gradient-4" x1="2003.71" y1="-1035.46" x2="2003.71" y2="-973.07" gradientTransform="matrix(0.81, -0.59, 0.59, 0.81, 418.42, 2237.6)" xlink:href="#linear-gradient-3"/><linearGradient id="linear-gradient-5" x1="3755.77" y1="112.15" x2="3776.98" y2="112.15" gradientTransform="translate(-2490.14)" gradientUnits="userSpaceOnUse"><stop offset="0" stop-color="#8cc63f"/><stop offset="0.28" stop-color="#8ac53f"/><stop offset="0.45" stop-color="#81c23f"/><stop offset="0.58" stop-color="#73bd40"/><stop offset="0.7" stop-color="#5fb541"/><stop offset="0.81" stop-color="#45ac42"/><stop offset="0.91" stop-color="#26a043"/><stop offset="1" stop-color="#019245"/><stop offset="1" stop-color="#009245"/></linearGradient><linearGradient id="linear-gradient-6" x1="3734.93" y1="114.52" x2="3762.37" y2="114.52" xlink:href="#linear-gradient-5"/><linearGradient id="linear-gradient-7" x1="3714.14" y1="116.08" x2="3745.81" y2="116.08" xlink:href="#linear-gradient-5"/><linearGradient id="linear-gradient-8" x1="3695.48" y1="113.44" x2="3729.08" y2="113.44" xlink:href="#linear-gradient-5"/><linearGradient id="linear-gradient-9" x1="3673.45" y1="102" x2="3714.09" y2="102" xlink:href="#linear-gradient-5"/></defs><path class="cls-1" d="M1920-1V1080H0V-1H1082.27a36.21,36.21,0,0,0-2.92-7.85A111.75,111.75,0,0,1,1089.4-1Z"/><path class="cls-2" d="M657.17,877.23c-4.56,31.41-10,65.53-15.88,103.2-4.81,30.69-9.94,63.73-15.17,99.57h-49.4c12.8-89.28,24.38-158.83,32.81-215.44,12.21-81.91,17.83-136.72,11.05-184.95q-.65-4.58-1.44-9.08-.93-5.29-2.08-10.51c-1.48-6.71-3.23-13.35-5.27-20a270.15,270.15,0,0,0-9.27-25.46q-3.06-7.29-6.62-14.7h0C571,548,527.27,490.07,457.14,399.1q-8.1-10.52-16.7-21.64c-14.3-18.55-29.62-38.4-46-59.74a256.31,256.31,0,0,1,39.73-20c7.52-3,15.3-5.83,23.7-8.72q18.72,23.22,35.48,44.67h0C558.1,416.65,601.49,481.23,629.18,539.5h0a472,472,0,0,1,19.62,47.57q4.62,13.26,8.18,26.35,3.67,13.44,6.31,26.86c1.81,9.16,3.28,18.34,4.44,27.61C675.33,728.87,669.34,793.38,657.17,877.23Z"/><path class="cls-3" d="M348.3,1080H294.08c-39.5-88.45-60.1-155-68.69-208.87-16.79-104.94,12-161.53,35.16-237.43q1.49-4.86,2.94-9.84,3.06-10.49,5.89-21.58c.83-3.29,1.65-6.62,2.43-10a502.16,502.16,0,0,0,11.29-70c3.74-41.37,3.19-90.29-4.83-151q-1.22-9.28-2.69-18.95-3.68-24.36-9-51.21c14.66-5.47,29.17-11.15,43.57-17.53,5.87,31.32,10.2,60.12,13.24,86.7q1,8.87,1.83,17.4c4.5,46.68,4.88,86.27,2.57,120.69a535.46,535.46,0,0,1-12.35,84.56h0c-1.42,6.23-2.93,12.27-4.49,18.15q-1.47,5.53-3,10.89c-1.31,4.63-2.66,9.15-4,13.6-23.75,77.33-53.19,130-35.43,229.09C278.18,918.74,301.92,986.67,348.3,1080Z"/><path class="cls-2" d="M971.71,1080h-59.1c-43.13-75.26-67.13-141.49-78.32-205q-1.95-10.95-3.37-21.79-.72-5.43-1.32-10.85c-1.55-14-2.53-27.83-3-41.7-.42-12.19-.43-24.36-.09-36.58q.51-18.83,2.07-37.84c2.21-27.5,5.9-55.42,10.55-84.31q2.64-16.41,5.67-33.26c16.77-94,41.14-199.48,56.55-333q1.18-10.28,2.3-20.79.93-8.88,1.82-17.93,14.29,2.11,28.6,4,9.27,1.2,18.54,2.31c-2.92,29.8-6.42,58.28-10.3,85.6-15.33,107.73-36.68,197.44-51.91,279q-3.4,18.19-6.35,35.88c-4.69,28.26-8.36,55.65-10.48,82.63-3.94,50.07-2.51,98.71,7.77,148.76C894.51,939.05,922.18,1005.4,971.71,1080Z"/><path class="cls-4" d="M735.83,1080H681.06c-16.07-36.53-29.18-69.53-39.77-99.57-15.7-44.51-25.83-82.52-31.76-115.87-14.19-79.81-4.32-133,11.05-184.95q2.61-8.83,5.41-17.67l.43-1.36c2.13-6.76,4.32-13.55,6.52-20.43,2.76-8.61,5.54-17.37,8.26-26.37,2.61-8.64,5.17-17.5,7.6-26.7,19.08-72,30.48-164,.11-322.47,14.67-5.66,29.18-11.53,43.58-18.12,34.37,189.59,16.07,289.48-7,366.26-2.87,9.51-5.81,18.67-8.72,27.61-3.06,9.38-6.11,18.51-9,27.54-19.42,60-33.31,115.39-10.56,209.33C670,930.06,694.33,995.09,735.83,1080Z"/><path class="cls-3" d="M1839.09,1080h-54.78C1584.8,621.85,1838.7,712.84,1752,255.42c14.67-5.72,29.18-11.65,43.58-18.31C1885.19,736.82,1616.6,620,1839.09,1080Z"/><path class="cls-2" d="M1261.55,1080h-53c-34.22-81-54.07-144.3-64.17-196.48v0q-.84-4.31-1.57-8.5-2.05-11.57-3.46-22.4c-4.72-36-4.46-66.42-1.18-94.06,1.33-11.16,3.14-21.87,5.32-32.3,4.77-22.8,11.27-44.29,18.14-66.35q2.67-8.53,5.38-17.22c3.83-12.38,7.69-25.08,11.32-38.43,20.07-73.63,33.55-166.76,2.59-332.55,14.33-5.67,28.5-11.56,42.57-18.16,31.24,176.79,17.94,275.76-2.23,350.65-5.55,20.6-11.62,39.39-17.42,57.47-7,21.9-13.67,42.77-18.53,64.59-9.25,41.54-12,86.55,1.27,148.76C1197.87,928,1220.89,993.51,1261.55,1080Z"/><path class="cls-3" d="M1165.15,726.24q-1.29,15.71-3.15,32.3-.59,5.12-1.2,10.32C1157,801,1151.73,836,1145.66,875q-.66,4.21-1.33,8.5v0c-8.77,56.11-19.13,120.47-29.5,196.48h-49.31c11.12-81.89,21.63-148.88,30.41-205,6.34-40.55,11.77-75.42,15.87-106.14.46-3.5.91-6.93,1.34-10.32,1.44-11.31,2.68-22,3.69-32.3,2.51-25.35,3.65-47.7,3.07-68.31a284.28,284.28,0,0,0-6.25-53.33c-16.28-74.19-65.67-138.91-171.32-275.83q-19.23-24.9-41-53.14Q896.26,269,891,262.14c4.32-2.65,8.52-5.07,12.66-7.3a267,267,0,0,1,30.42-14c6.48-2.53,13.18-4.93,20.34-7.39C1091.15,403,1148,499.38,1163.2,604.3c1.84,12.62,3.07,25.36,3.76,38.37q.46,8.67.62,17.49C1168,681.18,1167.05,703,1165.15,726.24Z"/><path class="cls-5" d="M1591.63,1080h-49.3c30.53-228.87,57.17-344.83,56.73-429.74,0-10.7-.53-20.91-1.49-30.78-8.32-85.46-52.27-146.31-161.92-288.59q-19.1-24.79-40.92-53.07-11.93-15.46-24.69-32.1c21.58-13.25,40.08-20.67,63.42-28.67C1721.86,574.64,1654.76,606.86,1591.63,1080Z"/><path class="cls-2" d="M1920,372.86v115c-23-35.19-53.56-75.8-93.29-127.47l-16.79-21.78q-17.91-23.24-38.12-49.44L1760,273.74l-.27-.35c-.76-1-1.52-2-2.27-3-.39-.49-.76-1-1.14-1.48l-2.39-3.12-2.84-3.69,2-1.18,1.08-.65,1.78-1.06c3.86-2.26,7.63-4.34,11.37-6.28.65-.34,1.3-.68,2-1,.83-.43,1.66-.84,2.48-1.25l.3-.15c8-3.92,15.83-7.28,24.12-10.46,3.93-1.52,8-3,12.13-4.46,2-.72,4.13-1.45,6.26-2.18,40.94,50.76,74.71,95,102.35,134.79Z"/><path class="cls-4" d="M251.4,1080H194.58C155,1005.18,134.69,939,126.8,874.75c-11.55-93.82,3.44-183.57,23.93-290.23q.6-3.12,1.2-6.27c6.23-32.28,12.91-66.12,19.49-102.1q3-16.66,6-33.95,2.38-13.69,4.68-27.81c6.1-37.42,11.79-77.16,16.56-119.73q1.73-15.44,3.29-31.39c15.69,2.32,31.4,4.37,47.14,6.26l-.51,5.14c-2.89,28.68-6.31,56.14-10.08,82.51q-1.35,9.36-2.75,18.54c-7.27,47.77-15.62,92-23.91,133.51C206.49,536.17,201.14,562,196.11,587c-.12.58-.23,1.16-.35,1.73-21,104.5-36.08,193.83-22.53,286.33C182.69,939.71,206.16,1006,251.4,1080Z"/><path class="cls-2" d="M459.13,379.79q-1,9.75-2,19.31c-7.73,71.51-18.71,135.34-30,193.82q-2.52,13-5.05,25.66-1.43,7.2-2.86,14.3l-1.11,5.45C403.74,709.22,390.07,772.5,383,833c-9.73,83.51-6.84,161.65,24.31,247H357.65c-25.59-80.69-28.86-154-21.26-231.49,6.38-65.18,20.47-133.25,35.43-211q1.28-6.62,2.55-13.32c.28-1.44.55-2.88.83-4.33q2.51-13.23,5-26.86c12-65,23.72-137,31.76-219.43q14.22,2.1,28.45,3.93Q449.77,378.67,459.13,379.79Z"/><path class="cls-3" d="M1464.9,1080h-59.05c-90.75-158.6-96.52-277.13-76.62-414.79,2.84-19.64,6.2-39.66,9.9-60.25,16.68-92.52,40.42-196.37,55.6-327.14q2.3-19.76,4.31-40.36c15.7,2.32,31.41,4.37,47.14,6.26-3,30.37-6.55,59.37-10.53,87.17-15.15,105.92-36.08,194.42-51.2,274.87-3.85,20.44-7.32,40.36-10.22,59.92C1353.71,804,1361.49,924,1464.9,1080Z"/><path class="cls-2" d="M16.12,568.86C10.38,597,4.88,623.89,0,650V399.71q4.35-28.8,8.22-59.48Q11.9,310.9,15,279.69c15.69,2.32,31.4,4.37,47.14,6.26q-3.49,35.69-8,68.93c-10.36,77.33-24,145.45-36.74,207.79Q16.74,565.78,16.12,568.86Z"/><path class="cls-2" d="M54.63,1080H0V954.69C11.64,994.71,29.28,1036,54.63,1080Z"/><path class="cls-6" d="M1145.7,125.08a142.24,142.24,0,0,1-1.48,19.5q-.49,3.49-1.16,6.95c-.47,2.46-1,4.91-1.6,7.34-.71,2.94-1.51,5.86-2.39,8.74v0q-1.8,5.86-4,11.52c-1.21,3.1-2.5,6.16-3.88,9.15q-1.86,4-3.92,7.95-1.86,3.54-3.87,6.95c-.35.6-.71,1.19-1.07,1.78-.84,1.4-1.71,2.77-2.58,4.13s-1.77,2.68-2.68,4q-1.56,2.26-3.2,4.46-1.33,1.82-2.73,3.57c-.92,1.17-1.85,2.31-2.8,3.44a129,129,0,0,1-26.86,24.52c-1.32.88-2.66,1.73-4,2.54-.85.52-1.71,1-2.57,1.5a88.52,88.52,0,0,1-8.05,4,68.69,68.69,0,0,1-18.69,5.27,54.13,54.13,0,0,1-11.15.27,60,60,0,0,1-15.33-3.44,81.41,81.41,0,0,1-11.26-5.07c-1.25-.68-2.5-1.4-3.74-2.15q-2.31-1.39-4.6-2.95a118.55,118.55,0,0,1-12.94-10.19q-3.28-3-6.45-6.24-2-2.08-4-4.29t-4-4.65q-2.45-3-4.79-6.12c-1.36-1.83-2.7-3.71-4-5.62s-2.71-4.09-4-6.2q-2.79-4.51-5.31-9.29-1.05-2-2-4c-.66-1.32-1.3-2.65-1.92-4q-1.5-3.26-2.87-6.59c-.55-1.33-1.07-2.66-1.57-4s-1-2.66-1.47-4a151.15,151.15,0,0,1-8.64-48.82,159.49,159.49,0,0,1,6.43-44.93,182.68,182.68,0,0,1,9.68-26C964.36,32.06,978.49,12.7,994.06-1h88.21a36.21,36.21,0,0,0-2.92-7.85A111.75,111.75,0,0,1,1089.4-1C1102,10,1113.61,24.66,1123,41.36,1136.94,66.39,1145.89,96,1145.7,125.08Z"/><path class="cls-6" d="M861.06,28.74c-.22,13.69-5.12,27.21-13.78,40.19-34,51.15-126.21,94-219.53,106a389.4,389.4,0,0,1-62.23,3.17c-8.35-.27-16.83-.85-25.38-1.73-53.82-5.49-110.57-22.52-155.75-46.5a273.53,273.53,0,0,1-42-27.07c-27.83-22.12-45.47-47.55-45.9-74.06A70.68,70.68,0,0,1,302.93-1H854.52a73,73,0,0,1,6.32,23.47A62.56,62.56,0,0,1,861.06,28.74Z"/><path class="cls-7" d="M213.65,65.28c0,1.14,0,2.28-.08,3.41-1.1,30.68-13.37,60.52-32.4,86.34q-4.56,6.18-9.61,12.05c-37.51,43.55-94.19,72.78-145.12,69.78A137,137,0,0,1,0,232.56V-1H198C208.07,20.36,213.84,43,213.65,65.28Z"/><path class="cls-7" d="M401,218.11c-.26,17.76-8,35.25-21.14,51.63-8.69,10.81-19.77,21.13-32.68,30.74a273.41,273.41,0,0,1-30.7,19.65l-2.45,1.34A352.39,352.39,0,0,1,273.65,340c-11.1,4.3-22.59,8.14-34.32,11.48a392.89,392.89,0,0,1-49.23,10.66A349.77,349.77,0,0,1,148.16,366q-9.89.3-19.63,0a356.09,356.09,0,0,1-74.42-11A397.25,397.25,0,0,1,8.22,340.23c-2.76-1.07-5.5-2.16-8.22-3.29V91.28A371.56,371.56,0,0,1,85.81,64.7c6.42-1.15,12.85-2.1,19.25-2.86,9.15-1.08,18.26-1.75,27.25-2,26.78-.67,54.39,2.56,81.26,8.82,42.28,9.84,82.71,27.19,115.14,48.63a235.65,235.65,0,0,1,38.38,31.17C388.59,170.44,401.39,194.47,401,218.11Z"/><path class="cls-1" d="M409.66,65c-.23,22.93-9.86,45.33-25.27,64.89a160.08,160.08,0,0,1-17.3,18.62c-22.21,20.45-50.73,35.92-79.7,42.65a133.82,133.82,0,0,1-37.2,3.54A125.9,125.9,0,0,1,236,193.09h0c-21.69-3.65-44.24-12.87-64.39-26-30.62-20-55.69-49-63.77-81.15h0A89.49,89.49,0,0,1,105,65c0-1.05,0-2.1,0-3.14.57-21.69,9.23-43.37,23-62.84H386.45c13.13,18.5,21.61,38.91,23,59.23Q409.69,61.61,409.66,65Z"/><path class="cls-1" d="M1083.08,6.17c-.32,18-18.84,35.52-46,49a243.57,243.57,0,0,1-49.79,17.84,278,278,0,0,1-42.77,7.1,238.08,238.08,0,0,1-27.14.81,269.48,269.48,0,0,1-70.09-12c-37.26-11.52-69-30.18-78.11-51.16a30.22,30.22,0,0,1-2.65-11.6A28.72,28.72,0,0,1,767.31-1h315A28.28,28.28,0,0,1,1083.08,6.17Z"/><path class="cls-6" d="M1422.69,155.41c-.47-71.79,53.75-144.62,100.44-147.33,50.15-2.91,107.64,74.17,107.18,147.33-.47,73.4-59.24,141.66-108.69,137.62C1477.44,289.43,1423.15,226.66,1422.69,155.41Z"/><path class="cls-6" d="M982.11,174c-1.27-77.92,146.17-157,273.12-159.91C1391.62,11,1548,94.61,1546.68,174c-1.27,79.66-161.09,153.74-295.54,149.37C1131,319.47,983.38,251.35,982.11,174Z"/><path class="cls-7" d="M281.62,231.67c-.8-89.5,92.6-180.31,173-183.69,86.4-3.63,185.42,92.47,184.62,183.69-.8,91.51-102,176.61-187.21,171.58C375.93,398.76,282.43,320.5,281.62,231.67Z"/><path class="cls-7" d="M540.09,174.54C538.91,97.43,674.87,19.21,791.92,16.3c125.76-3.13,269.9,79.66,268.74,158.24-1.17,78.82-148.54,152.14-272.51,147.81C677.36,318.48,541.26,251.06,540.09,174.54Z"/><path class="cls-1" d="M1334.29,20.24c0,.31,0,.62,0,.92a91.61,91.61,0,0,1-5.54,29.12c-7.18,20.12-20.89,38.94-38.36,54.69q-2,1.83-4.14,3.62l-1.41,1.18c-4.41,3.65-9,7.12-13.8,10.36l-1,.65c-.44.29-.88.59-1.32.87q-2.16,1.44-4.36,2.8-2.48,1.53-5,3l-1.32.76q-3.19,1.8-6.46,3.48-4.83,2.49-9.8,4.69h0c-1.07.48-2.15.94-3.23,1.39-1.33.56-2.66,1.1-4,1.61q-2.31.91-4.64,1.74c-1.33.48-2.66.94-4,1.37s-2.66.86-4,1.27c-1.08.32-2.17.64-3.25.93-1.56.45-3.13.86-4.7,1.24a134.89,134.89,0,0,1-39.15,4c-1.34-.07-2.68-.16-4-.28-1.65-.14-3.3-.32-5-.53-1.49-.19-3-.41-4.47-.65q-2.79-.45-5.59-1c-1.42-.29-2.83-.6-4.25-.93s-2.71-.66-4.07-1c-1.08-.29-2.16-.59-3.24-.91-.39-.1-.77-.22-1.16-.34-1.33-.39-2.66-.8-4-1.24s-2.67-.89-4-1.36-2.61-.94-3.91-1.44-2.67-1-4-1.58-2.67-1.11-4-1.69c-28.67-12.59-55.57-33.3-73.09-58.28a122.23,122.23,0,0,1-13-23.44,94,94,0,0,1-7.4-35A91.64,91.64,0,0,1,1032-1h50.26a36.21,36.21,0,0,0-2.92-7.85A111.75,111.75,0,0,1,1089.4-1h242.52A90.9,90.9,0,0,1,1334.29,20.24Z"/><path class="cls-1" d="M1579.94-1c-1.87,8-7.18,15.81-15.07,23.13-22.08,20.5-64.38,37.14-108.11,43.29q-4.21.6-8.44,1c-5.45.6-10.91,1-16.33,1.27-5.72.26-11.41.31-17,.15-28.45-.83-59.64-7.39-86.24-17.61-24.61-9.45-45.29-22-56.23-36.12A39.33,39.33,0,0,1,1264.87-1Z"/><path class="cls-7" d="M1920-1V129.21a220.35,220.35,0,0,1-37.83,29.49c-20.51,12.9-44.33,24.12-69.81,33A397.86,397.86,0,0,1,1754.12,207a363.44,363.44,0,0,1-48.08,5.64c-8.77.43-17.49.5-26.09.2a345.81,345.81,0,0,1-58.77-7.4,397.1,397.1,0,0,1-41.51-11.14c-11.49-3.75-22.75-8-33.6-12.71-10.13-4.38-19.9-9.15-29.18-14.26-22.4-12.33-41.94-26.62-56.61-42.21-10.71-11.38-18.83-23.45-23.58-35.95A71.24,71.24,0,0,1,1432,67.74c0-.89-.09-1.78-.1-2.67a68,68,0,0,1,.9-12c3-18.56,13.56-36.95,29.39-54.1Z"/><path class="cls-1" d="M1508.86,206.44c-.69-67.65,78.86-136.29,147.36-138.85,73.59-2.74,157.94,69.9,157.26,138.85-.68,69.17-86.92,133.5-159.46,129.7C1589.19,332.74,1509.54,273.59,1508.86,206.44Z"/><path class="cls-6" d="M1848.68-1H1920V186.06c-13-5.29-26.07-14.8-37.83-27.36C1858.09,133,1839.64,94.43,1839.37,53A152.81,152.81,0,0,1,1842,24,173,173,0,0,1,1848.68-1Z"/><path class="cls-7" d="M1920,22.41v345c-1,.28-2.11.55-3.17.8a138.77,138.77,0,0,1-41,4c-15.93-.94-32.63-5.12-49.08-12-5.18-2.14-10.34-4.56-15.44-7.22a218.79,218.79,0,0,1-49-35.08q-2.45-2.31-4.82-4.71-1.79-1.79-3.5-3.62t-3.35-3.62c-.06,0-.1-.11-.15-.16-2.37-2.63-4.68-5.32-6.9-8.06-.45-.55-.9-1.11-1.34-1.67s-.69-.86-1-1.29-.76-1-1.14-1.47c-.59-.78-1.19-1.55-1.77-2.34s-1.1-1.48-1.64-2.23l-.09-.13q-5.13-7.11-9.56-14.63a167.71,167.71,0,0,1-10.16-20.17q-1.27-3-2.42-6.08a143.32,143.32,0,0,1-7.43-28.11c-.27-1.68-.5-3.36-.7-5.05-.08-.67-.15-1.34-.22-2-.41-4-.63-8-.67-12a143,143,0,0,1,6.56-43.2c6.67-21.74,18.08-42.67,32.57-61.45,25.8-33.39,61.38-59.94,97.53-72a132.47,132.47,0,0,1,36.35-7A129.9,129.9,0,0,1,1920,22.41Z"/><path class="cls-8" d="M1454.05,317.9a42.91,42.91,0,0,1-53.63,28.35,53.7,53.7,0,0,1-36.75-39.49,1.6,1.6,0,0,0-.05-.21,53.08,53.08,0,0,1,0-23v-24.7h45.32v19a27.52,27.52,0,0,1,22.26-2.72A34.27,34.27,0,0,1,1454.05,317.9Z"/><path class="cls-6" d="M1363.67,306.76h-.05v-.21A1.6,1.6,0,0,1,1363.67,306.76Z"/><path class="cls-3" d="M1762.89,273.72c-131.85.64-277,10.92-406.89.61-6.92-.55-12-6.4-11.33-13,.09-.93.19-1.85.28-2.78.68-6.44,6.67-11.18,13.46-10.62,128.51,10.59,273.67-.07,404.37-.75,6.9,0,12.51,5.28,12.51,11.84v2.83C1775.29,268.4,1769.75,273.69,1762.89,273.72Z"/><ellipse class="cls-2" cx="1762.66" cy="260.44" rx="13.94" ry="13.25"/><path class="cls-3" d="M1762,267.38a7.72,7.72,0,0,1-7.9-7.51,9.44,9.44,0,0,1,9.65-9.18c6.54,0,11.86,5.06,11.86,11.27h-1.77a9.86,9.86,0,0,0-10.09-9.59,7.72,7.72,0,0,0-7.89,7.5,6,6,0,0,0,6.14,5.83,4.62,4.62,0,0,0,4.73-4.49,3.53,3.53,0,0,0-3.61-3.43,2.65,2.65,0,0,0-2.71,2.57,2,2,0,0,0,2,1.9,1.39,1.39,0,0,0,1.42-1.35.94.94,0,0,0-1-.91.58.58,0,0,0-.59.56h-1.76a2.3,2.3,0,0,1,2.35-2.24,2.66,2.66,0,0,1,2.73,2.59,3.11,3.11,0,0,1-3.19,3,3.67,3.67,0,0,1-3.76-3.57,4.38,4.38,0,0,1,4.48-4.25,5.25,5.25,0,0,1,5.38,5.11A6.35,6.35,0,0,1,1762,267.38Z"/><path class="cls-9" d="M1755.13,216.83c-3.16-62.9-60.64-53.58-96.5-94.6-20.58-23.54-48.11.62-67.31,33.16a133.49,133.49,0,0,0-224.9,97.28h240.81c14.6,8.19,32.17,11.68,49.23,13.23,34.16,3.1,73.62-11.86,94.28-39.69-21.62-1.2-46.49-7-68.79-11.86C1706.28,215.44,1729.42,213.36,1755.13,216.83Z"/><path class="cls-10" d="M1606.85,252.74l-10-16.64-10-16.64c-4.71-7.8-12-10-13.2-4l-2.46,12.84-2.47,12.84a9.68,9.68,0,0,0-.08,2.76,10.7,10.7,0,0,0,.22,5.7l2.15,7.39,2.15,7.39c1.63,5.61,6.12,8.11,8.08,4.5l2.59-4.76,1.9-3.48,6.09,1.85,12.51,3.81C1610.11,268.07,1611.56,260.54,1606.85,252.74Z"/><path class="cls-11" d="M1413.35,184.67a66.07,66.07,0,0,1,13.4-.54c5.12.47,10.06,2.06,15,3.35a121,121,0,0,0,51.18,2.33c8.69-1.54,17.24-4.12,26-4.46,21.48-.84,42.26,11.62,63.55,8.69"/><circle class="cls-12" cx="1669.48" cy="167.33" r="22.84"/><path class="cls-13" d="M1652.74,175.61s2.06-13.23,16.67-13.23,16.68,13.23,16.68,13.23a16.68,16.68,0,0,0-33.35,0Z"/><path class="cls-1" d="M1414,340.34a34.06,34.06,0,0,1-17-4.63c-20.83-12-29-38.86-18.16-59.92l1,.51c-10.54,20.53-2.59,46.75,17.73,58.44a32.31,32.31,0,0,0,25.45,3.18,31.4,31.4,0,0,0,19.12-16c6.7-13,1.64-29.71-11.27-37.14a20.46,20.46,0,0,0-16.13-2,19.83,19.83,0,0,0-12.11,10.11,18,18,0,0,0,7.13,23.5,12.89,12.89,0,0,0,10.16,1.27,12.48,12.48,0,0,0,7.63-6.37,11.3,11.3,0,0,0-4.48-14.77,8.07,8.07,0,0,0-6.35-.8,7.77,7.77,0,0,0-4.76,4,7,7,0,0,0,2.79,9.19,5,5,0,0,0,3.91.49,4.8,4.8,0,0,0,2.92-2.45l1,.51a5.9,5.9,0,0,1-3.61,3,6.09,6.09,0,0,1-4.78-.59,8.18,8.18,0,0,1-3.23-10.67,9,9,0,0,1,5.44-4.54,9.2,9.2,0,0,1,7.23.9,12.44,12.44,0,0,1,4.92,16.25,13.59,13.59,0,0,1-8.31,6.93,14,14,0,0,1-11-1.37,19.12,19.12,0,0,1-7.57-25,21,21,0,0,1,12.79-10.68,21.63,21.63,0,0,1,17,2.12c13.42,7.72,18.67,25,11.7,38.62A32.6,32.6,0,0,1,1414,340.34Z"/><path class="cls-14" d="M1477.37,253.65l-12.65-14.75-12.65-14.76c-5.93-6.92-13.52-7.91-13.67-1.78l-.32,13.07-.31,13.07a9.48,9.48,0,0,0,.37,2.73,10.73,10.73,0,0,0,1.16,5.59l3.34,6.94,3.33,6.93c2.54,5.26,7.38,7,8.72,3.1l1.77-5.12,1.29-3.74,6.32.82,13,1.69C1483.11,268.23,1483.3,260.57,1477.37,253.65Z"/><path class="cls-15" d="M266.13,634c-222-10.92,330.21-18.5,427.19-21.45,153.16-4.66,955-24.84,933.4,21.73-26,56.26-556.12,22.48-741,9.46C804,638,449,643,266.13,634Z"/><path class="cls-6" d="M636.73,604.63q-20.61-2.79-40.84-4.74c-57.87-5.68-113.63-6.83-168.78-7-15.67,0-31.28,0-46.88,0-21.59,0-43.14.11-64.77,0-14.51-.11-29-.3-43.65-.66-20.81-.51-41.74-1.34-62.87-2.68q-6.57-.42-13.18-.9c-14.89-1.1-29.89-2.46-45-4.17q-12.71-1.42-25.56-3.18c-36.46-5-72.85-9.48-109-12.48Q8.05,568.18,0,567.62v-532c29.66-1.79,58.61,7,85.81,29.11a185.08,185.08,0,0,1,22,21.23l.84,1A517.78,517.78,0,0,0,181.17,155,651.73,651.73,0,0,0,236,193.09c15.24,9.51,30.64,18.39,46.08,26.83,32.86,17.94,65.89,33.9,97.86,49.82,18.53,9.23,36.7,18.44,54.28,28a650.37,650.37,0,0,1,59.18,36,377.47,377.47,0,0,1,52.47,43.22c39.85,39.79,69.66,90.7,83.35,162.56A475.69,475.69,0,0,1,636.73,604.63Z"/><circle class="cls-12" cx="269.02" cy="398.02" r="125.01"/><path class="cls-13" d="M177.44,443.31s11.27-72.41,91.21-72.41S360,443.31,360,443.31a91.26,91.26,0,0,0-182.51,0Z"/><path class="cls-6" d="M627,660.61q-3.85,5-7.88,9.92C559.93,742.91,475.78,798.19,383,833q-23,8.63-46.63,15.55a671.82,671.82,0,0,1-67.88,16.15q-21.51,4-43.12,6.47-26.14,3-52.16,3.89-23.37.78-46.43-.27-11.79-.53-23.46-1.55C69,870.19,34.21,865.81,0,859.35V562.67q8.67-.09,17.37,0a581.59,581.59,0,0,1,87.86,7.27q22.59,3.7,46.7,8.31,21.58,4.08,44.18,8.71,6.38,1.29,12.83,2.63c19.73,4.06,39.92,8.34,60.44,12.69l41.58,8.8q22.29,4.68,44.88,9.32,9.26,1.89,18.53,3.75,22.38,4.49,44.83,8.73,16.29,3.06,32.55,5.92c56.57,10,112.57,17.84,165.31,21.22C620.39,660.24,623.71,660.43,627,660.61Z"/><path class="cls-15" d="M1631,622.79c-1.16-35.1,1.75-113.14-29.24-81.11S1483.36,625.45,1487.08,645,1566.59,661,1606,701,1632.14,657.89,1631,622.79Z"/><path class="cls-16" d="M1729.4,540.2c9.43-5.18,22.64.76,29.5,13.26s16.26,47.74,6.83,52.92-34.12-21.68-41-34.18S1720,545.37,1729.4,540.2Z"/><path class="cls-17" d="M1785.15,664.59c-10.4,6.16-21.85,10.44-30.72,11.5a40.64,40.64,0,0,1-9.62-80.71c9.48-1.12,22.66.62,34.9,4.72,16.53,5.52,31.32,15.33,32.85,28.14C1814.16,641.64,1800.86,655.28,1785.15,664.59Z"/><polygon class="cls-18" points="1715.14 632.98 1716.41 639.73 1717.69 646.49 1702.85 645.79 1688.02 645.09 1701.58 639.03 1715.14 632.98"/><circle class="cls-19" cx="1799.68" cy="614.27" r="17.36"/><circle class="cls-20" cx="1792.68" cy="610.28" r="17.36"/><ellipse class="cls-18" cx="1812.41" cy="616.95" rx="8.68" ry="8.8" transform="translate(377.55 1884.48) rotate(-60.26)"/><ellipse class="cls-18" cx="1801.82" cy="611.67" rx="8.68" ry="8.8" transform="translate(376.8 1872.63) rotate(-60.26)"/><path class="cls-18" d="M1791.78,643.37l-1.71,3c-11.34-4-18.34-13.64-15.76-22C1774.31,624.38,1773.2,637.37,1791.78,643.37Z"/><path class="cls-18" d="M1759.38,659.3c3.66,9.09,5.37,24.86-13.45,16.08,3.38,5.51,22.41,2.2,24.25-2.09,7.3-17-8.69-46.94-13.3-63-3-10.39-16.13-23.64-27.08-10.41C1752.18,601,1751.51,639.74,1759.38,659.3Z"/><path class="cls-21" d="M1719,548.07c9.43-5.18,22.63.76,29.49,13.26s16.26,47.74,6.83,52.92-34.12-21.68-41-34.18S1709.61,553.24,1719,548.07Z"/><circle class="cls-22" cx="1804.97" cy="612.73" r="3.96"/><circle class="cls-22" cx="1816.77" cy="619.47" r="3.96"/><path class="cls-5" d="M965.9,123.75V177.9H918.54V123.75l-12.8.25.14,113,0,16.19h12.64V192.49H965.9v60.67h12.79V123.75Z"/><path class="cls-5" d="M914.54,188.49v49.73l4,.56V192.49H965.9V212c1.3,1.91,2.64,3.79,4,5.62V188.49Zm47.36-68.74V173.9H922.54V119.67l-20.8.41.17,135.72v1.36h20.63V196.49H961.9v60.67h20.79V119.75Zm12.79,129.41H969.9V188.49H914.54v60.67H909.9V237.55l-.14-109.63,4.79-.09V181.9H969.9V127.75h4.79Zm-60.15-60.67v49.73l4,.56V192.49H965.9V212c1.3,1.91,2.64,3.79,4,5.62V188.49Z"/><path class="cls-5" d="M1045.36,123.75v76.61a84.52,84.52,0,0,1-2.32,21.23h0c-3.13,11.9-9.28,18.22-17.54,19.7h0a22.08,22.08,0,0,1-4,.34c-.43,0-.86,0-1.29,0-8.69-.55-15.76-6.8-19.22-20.11a84.94,84.94,0,0,1-2.3-21.13V123.75H986V200c0,25.88,6.29,41.38,16.13,49.11a26.57,26.57,0,0,0,4.6,2.95,28.63,28.63,0,0,0,4.26,1.74,33.61,33.61,0,0,0,10.16,1.49,34.33,34.33,0,0,0,13.09-2.44c14.31-5.86,24-22.61,24-53.62V123.75Z"/><path class="cls-5" d="M1041.36,119.75v80.61c0,17-3.44,37.28-19.82,37.28a13.56,13.56,0,0,1-9.27-3.53h0a13.66,13.66,0,0,1-1.51-1.53l0,0c-5.17-6-8-17-8-32.16V119.75H982V200a134.45,134.45,0,0,0,.74,14.53c1.11,10.26,3.42,18.22,6.45,24.39,4.82,9.76,11.45,15,18.05,17.75a36.76,36.76,0,0,0,13.91,2.62h.58a37.16,37.16,0,0,0,16.24-3.74,35.38,35.38,0,0,0,12.89-11c5.8-7.95,9.4-18.83,10.74-32.46q.6-6.06.6-12.83V119.75Zm12.79,79.46c0,1.22,0,2.42-.05,3.6h0c-.68,26.22-9,42.53-23.74,47.11a32.49,32.49,0,0,1-15.5.73c-19-3.91-24.23-26-24.84-46.31h0c0-1.46-.07-2.92-.07-4.36V127.75h4.78v72.61a106.08,106.08,0,0,0,.79,13.46h0c3.53,27.44,17.92,31.55,25.26,31.8h.76a26,26,0,0,0,3.21-.2c9-1.09,20.87-7.43,23.89-32.21h0a108,108,0,0,0,.72-12.86V127.75h4.79Z"/><path class="cls-5" d="M1127.15,123.75V177.9c0,6.52,0,12.58.11,18.38.17,12.12.56,23.11,1.34,34.8l-.29.19c-2.53-7.2-5.35-14.51-8.57-22.13-2.71-6.39-5.7-13-9-19.92l-31.37-65.47h-13.81V253.16h11.92v-55.3c0-21.5-.29-37.05-1-53.37l.44-.19a462.14,462.14,0,0,0,18.3,43.2l15.94,33.66,15.15,32h12.78V123.75Z"/><path class="cls-5" d="M1123.15,119.75V177.9c0,8.88.06,17.18.24,25.33,0,1.52.07,3,.11,4.54-.39-.92-.78-1.84-1.18-2.76-2.45-5.7-5.11-11.52-8-17.52l-32.47-67.74h-20.32V257.16h19.92v-59.3c0-12.07-.09-22.23-.3-31.66,3,7,6.41,14.58,10.4,23l16.76,35.39,15.42,32.56h19.31V119.75Zm11.91,129.41h-6.25l-15-31.57-15.06-31.81c-8.12-17.13-13.89-30.74-18.14-42.81l-1.44-4.08-6.89,3,.12,2.74c.72,16.15,1,31.56,1,53.19v51.3h-3.92V127.75h7.29l30.29,63.2c3.66,7.66,7,15,9.93,22.18,2.76,6.62,5.23,13.08,7.48,19.47l1.7,4.85,6.51-4.32-.16-2.32c-1-14.45-1.31-27.85-1.41-42.48,0-3.4,0-6.87,0-10.43V127.75h3.91Z"/><path class="cls-5" d="M1188.89,185.19v13.44h19.9v38.59c-2.91,1.92-8.57,3.46-16.85,3.46-22.81,0-37.77-19.39-37.77-52.22,0-16.93,4.23-30.37,11.67-39.34,6.8-8.22,16.3-12.7,27.7-12.7,9.88,0,16.41,2.5,21.64,5.57l2.75-12.28.3-1.35a35,35,0,0,0-8.61-3.71,55.2,55.2,0,0,0-15.79-2.24c-18.67,0-33.21,9.13-42.3,24.1a71.5,71.5,0,0,0-8.47,21.68,98.45,98.45,0,0,0-2.26,21,104,104,0,0,0,2.26,22c2.3,10.61,6.25,19.61,11.4,26.17,9.59,12.1,21.79,17.09,36.61,17.09a72,72,0,0,0,30.07-7.1V185.19Z"/><path class="cls-5" d="M1184.89,181.19v21.44h19.9v32.16c-2.13.85-6.11,1.89-12.85,1.89-20.83,0-33.77-18.48-33.77-48.22,0-17.18,4.55-30.58,12.63-38.81a30.84,30.84,0,0,1,22.74-9.23c9.82,0,15.64,2.69,19.62,5l.82.48,3.91,2.3.79-3.54,3.23-14.45,0-.07.82-3.66-.82-.52-1.55-1a39.93,39.93,0,0,0-10.55-4.45q-1.57-.44-3.27-.81a61.16,61.16,0,0,0-12.73-1.32h-1.11s0,0,0,0c-19.66.36-35.51,10.35-45.25,27.07a67.61,67.61,0,0,0-4.4,9c-.57,1.41-1.1,2.86-1.6,4.34a85.27,85.27,0,0,0-2.39,8.74v0a102.82,102.82,0,0,0-2.26,21.56,108.39,108.39,0,0,0,2.26,22.37,84,84,0,0,0,4,13.49,59,59,0,0,0,8.26,14.82c9.93,12.52,22.93,18.6,39.75,18.6a75.05,75.05,0,0,0,30.86-7.06l.92-.43,2.29-1.08V181.19Zm32.25,63.63a67.7,67.7,0,0,1-26.07,5.68c-14.42,0-25.06-4.95-33.46-15.55-8.14-10.39-12.81-27-12.81-45.71.06-16.77,4-31.09,11-41.8,8.64-13.29,21.89-21,38-21a47.92,47.92,0,0,1,19.84,4l-1.26,5.66a46.36,46.36,0,0,0-18.87-3.66c-13.52,0-24.59,5.8-32.17,16.05-7.17,9.71-11.2,23.42-11.2,40,0,16.81,3.84,30.92,11.11,40.79a36.73,36.73,0,0,0,30.66,15.43c8.27,0,15-1.46,19.06-4.12l1.79-1.19V194.63h-19.9v-5.44h24.25Z"/><path class="cls-5" d="M1282.15,217.64c-2.32-13.44-6.83-22.66-14.38-26.11V191c10.31-4.61,18.45-15.93,18.45-33a51.07,51.07,0,0,0-.49-7.1c-1-7-3.48-13.13-7.21-17.48l-.1-.11a26.36,26.36,0,0,0-11.44-8c-.83-.31-1.7-.59-2.59-.84a47.3,47.3,0,0,0-10.26-1.55c-1.27-.08-2.58-.11-3.94-.11l-2.59,0h0a115.51,115.51,0,0,0-12.15.88,71.57,71.57,0,0,0-8.52,1.53l-1,.25V253.16h12.64V197.1h11.91c11.48.57,16.71,7.29,19.61,25.15,2.76,16.12,4.94,27.26,6.54,30.91h13.08C1287.67,248.17,1285.35,235.69,1282.15,217.64Zm-43.58-80.45a18.13,18.13,0,0,1,3.23-.82h0a54.13,54.13,0,0,1,9.25-.71c13.37.19,22.52,7.48,22.52,24.19,0,14.78-8.57,24.57-22.08,24.57h-12.93Z"/><path class="cls-5" d="M1251.61,131.68l-.55,0c-5.73,0-10.93.67-13.9,1.79l-2.59,1v54h16.93c15.6,0,26.08-11.48,26.08-28.57C1277.58,142.36,1268.15,132.13,1251.61,131.68Zm-.11,48.74h-8.93V140.3a49.58,49.58,0,0,1,8.44-.64c12.32.17,18.57,7,18.57,20.19C1269.58,172.54,1262.65,180.42,1251.5,180.42Zm.11-48.74-.55,0c-5.73,0-10.93.67-13.9,1.79l-2.59,1v54h16.93c15.6,0,26.08-11.48,26.08-28.57C1277.58,142.36,1268.15,132.13,1251.61,131.68Zm-.11,48.74h-8.93V140.3a49.58,49.58,0,0,1,8.44-.64c12.32.17,18.57,7,18.57,20.19C1269.58,172.54,1262.65,180.42,1251.5,180.42Zm41.91,71.23c-1.92-4.71-4.35-17.93-7.32-34.69-2.08-12-5.78-20.45-11.24-25.46,9-6.32,14.44-17.08,15.26-30.13.07-1.13.11-2.28.11-3.44a53.66,53.66,0,0,0-.6-8.14c-1.1-7.4-3.76-13.85-7.73-18.63l-.3-.37a30.22,30.22,0,0,0-11.67-8.67c-.38-.17-.77-.32-1.17-.47a46.41,46.41,0,0,0-13.34-2.69h0c-1.66-.11-3.4-.17-5.21-.17q-2.34,0-4.68.09c-2.6.1-5.18.27-7.66.52a83.23,83.23,0,0,0-12.86,2.19l-.1,0-3,.8V257.16h20.64V201.1h7.81c8.18.43,12.87,4,15.77,21.82,3.25,19,5.23,28.21,6.82,31.84l1,2.4h21.64Zm-13.92-2.49c-1.86-6.6-4.41-21.48-5.45-27.56-2.69-16.54-7.69-27.71-23.36-28.5h-16.11v56.06h-4.64V128.64l.22,0a104.91,104.91,0,0,1,20-1.81h1.29l1,0a54.41,54.41,0,0,1,6.91.62c.76.12,1.49.26,2.2.42h0a23.71,23.71,0,0,1,13.88,8.1c4.28,5,6.74,13,6.74,22,0,13.89-6,24.87-16.08,29.37l-2.37,1.06v5.74l2.34,1.07c5.83,2.66,9.91,10.46,12.1,23.17,2.37,13.35,4.31,24,6.07,30.82Zm-1.91-89.31c0-17.49-9.43-27.72-26-28.17l-.55,0c-5.73,0-10.93.67-13.9,1.79l-2.59,1v54h16.93C1267.1,188.42,1277.58,176.94,1277.58,159.85Zm-26.08,20.57h-8.93V140.3a49.58,49.58,0,0,1,8.44-.64c12.32.17,18.57,7,18.57,20.19C1269.58,172.54,1262.65,180.42,1251.5,180.42Zm.11-48.74-.55,0c-5.73,0-10.93.67-13.9,1.79l-2.59,1v54h16.93c15.6,0,26.08-11.48,26.08-28.57C1277.58,142.36,1268.15,132.13,1251.61,131.68Zm-.11,48.74h-8.93V140.3a49.58,49.58,0,0,1,8.44-.64c12.32.17,18.57,7,18.57,20.19C1269.58,172.54,1262.65,180.42,1251.5,180.42Zm.11-48.74-.55,0c-5.73,0-10.93.67-13.9,1.79l-2.59,1v54h16.93c15.6,0,26.08-11.48,26.08-28.57C1277.58,142.36,1268.15,132.13,1251.61,131.68Zm-.11,48.74h-8.93V140.3a49.58,49.58,0,0,1,8.44-.64c12.32.17,18.57,7,18.57,20.19C1269.58,172.54,1262.65,180.42,1251.5,180.42Z"/><path class="cls-5" d="M1341,123.75l-14.09,35.71c-3.78,9.8-7.12,18.24-9.88,26.69h-.29c-3-9-6-16.89-9.74-26.69l-13.8-35.71h-14.38l3.08,7.41,7.73,18.63,20.13,48.46v54.91h12.79v-55.1l32.83-74.31Z"/><path class="cls-5" d="M1338.27,119.75,1323.16,158l-1.42,3.7c-1.75,4.5-3.36,8.68-4.86,12.73-1.79-4.95-3.75-10.2-6.15-16.43l-14.8-38.27h-23.11l1.15,2.76.94,2.27,3.51,8.46,7.31,17.59,4.38,10.54L1305.75,199v58.12h20.79V198.9l35-79.15Zm-19.73,129.41h-4.79V197.45l-29-69.7h5.65l12.81,33.15c4.08,10.57,6.88,18.25,9.68,26.53l.92,2.72h6.06l.9-2.76c2.37-7.26,5.16-14.45,8.38-22.78l14.51-36.86h5.52l-30.69,69.46Z"/><path class="cls-7" d="M1299.51,272.45v55.14h-55.25V272.45h-14.75V404.26h14.75v-61.8h55.25v61.8h14.92V272.45Z"/><path class="cls-7" d="M1296,269v55.14h-48.25V269H1226V407.76h21.75V346H1296v61.8h21.92V269Zm14.92,131.81H1303V339h-62.25v61.8H1233V276h7.75v55.14H1303V276h7.92Z"/><path class="cls-7" d="M1337.82,390V342.46h44.41V328.38h-44.41V286.72h47V272.45h-61.7V404.26h64.24V390Z"/><path class="cls-7" d="M1384.34,324.88h-43V290.22h21.26c0-.4.08-.8.12-1.2s.09-.79.15-1.18.1-.75.16-1.12h12a.43.43,0,0,0,0-.11c.07-.34.15-.67.23-1,.18-.8.39-1.59.63-2.38h-41.54v48.66h44.41V339h-44.41v17.42l3.5.05,3.5,0V346h44.41V326.51C1385.25,326,1384.79,325.43,1384.34,324.88Zm-43,61.6V346h44.41V324.88h-44.41V290.22h47V269h-68.7V407.76h71.24V386.48Zm42.49,14.28h-57.24V276h54.7v7.27h-47v48.66h44.41V339h-44.41v54.52h49.49ZM1376.34,331c-.35-.38-.69-.77-1-1.17l-.11-.12-.91-1.1-.21-.26c-.66-.82-1.29-1.67-1.89-2.53-.23-.32-.45-.64-.67-1h-30.2V290.22h21.26q0-.6.12-1.2c0-.39.09-.79.15-1.18s.1-.75.16-1.12h12a.43.43,0,0,0,0-.11c.07-.34.15-.67.23-1,.18-.8.39-1.59.63-2.38h-41.54v48.66h42.82C1376.87,331.6,1376.6,331.32,1376.34,331Z"/><path class="cls-7" d="M1461.2,395.94c-.85-3.29-1.78-7.29-2.78-11.95-1-4.39-2-9.35-3.09-14.84-.07-.35-.15-.71-.22-1.07a65.16,65.16,0,0,0-2.8-10.18c-3-8.18-7.56-13.86-14-16.42v-.59a35.59,35.59,0,0,0,3.71-1.71c10.22-5.48,17.82-16.35,17.82-31.92,0-10.17-3.23-19.17-9-25-.67-.7-1.36-1.36-2.08-2a27.3,27.3,0,0,0-2.18-1.71,30.78,30.78,0,0,0-3.88-2.35c-6.3-3.22-14.35-4.71-24.91-4.71-3,0-5.94.08-8.88.24a135.36,135.36,0,0,0-13.67,1.39c-1.28.2-2.5.42-3.67.66-.72.14-1.42.29-2.09.45V404.26h14.75V347.15h13.9c1,0,2,.12,2.89.24,4.76.6,8.47,2.18,11.42,5.05a20.92,20.92,0,0,1,3.85,5.25,45.38,45.38,0,0,1,3.92,11.26c.29,1.21.55,2.49.8,3.82,3.22,16.43,5.76,27.77,7.63,31.49h15.25A54.56,54.56,0,0,1,1461.2,395.94Zm-56.94-61.7v-48.1a20,20,0,0,1,3.07-.73h0c.72-.13,1.53-.24,2.41-.35h0a76.08,76.08,0,0,1,9.07-.49,33.72,33.72,0,0,1,14.22,2.93,20.51,20.51,0,0,1,5.17,3.46l0,0a19.31,19.31,0,0,1,2.38,2.64c2.87,3.84,4.47,9,4.47,15.58,0,.4,0,.79,0,1.18a4.52,4.52,0,0,1,0,.52c0,.36,0,.71-.07,1.06s0,.61-.09.9-.05.45-.09.67-.08.53-.13.79a7.09,7.09,0,0,1-.14.78,24,24,0,0,1-3.11,8.13l0,0a21.18,21.18,0,0,1-5.53,6,9.67,9.67,0,0,1-1,.67,27.72,27.72,0,0,1-15.59,4.29Z"/><path class="cls-7" d="M1441.21,289a21.54,21.54,0,0,0-4.15-3.27,29.43,29.43,0,0,0-10-3.84h0a44,44,0,0,0-8.13-.82h-1.47c-5.92.09-11.15.72-14.21,1.73l-2.4.79v54.14h18.58a36.17,36.17,0,0,0,5.39-.39h0a30.85,30.85,0,0,0,5.42-1.27h0a27.82,27.82,0,0,0,5.06-2.23,21.51,21.51,0,0,0,1.83-1.14c7.26-4.93,11.55-13.19,11.55-23.5C1448.61,300.63,1446,293.79,1441.21,289Zm-33.45-.12a64.15,64.15,0,0,1,11-.82,34.16,34.16,0,0,1,9.74,1.37q8.35,2.58,11.38,10a25.72,25.72,0,0,1,1.7,9.78c0,6-1.75,11-5,14.66a17.81,17.81,0,0,1-3.85,3.32,24.48,24.48,0,0,1-13.46,3.55h-11.58Zm48.29,69.05c-.11-.32-.23-.64-.34-.95h0q-6.64-8.69-13.67-17.8c10.22-5.48,17.82-16.35,17.82-31.92,0-10.17-3.23-19.17-9-25-.67-.7-1.36-1.36-2.08-2l-3.5,1.69a25.87,25.87,0,0,1,3.08,2.75c5.08,5.16,8,13.39,8,22.58s-3.07,17.41-8.57,23.21a28.69,28.69,0,0,1-7.92,5.9c-.9.46-1.84.88-2.81,1.26l-2.23.87v5.35l2.2.88c5,2,8.77,6.3,11.52,13.12a61.14,61.14,0,0,1,3.13,10.92c0,.11,0,.22.07.33l3.58,0,3.57,0-.36-1.79A74,74,0,0,0,1456.05,357.94Zm-19-25.23c7.26-4.93,11.55-13.19,11.55-23.5,0-8.58-2.57-15.42-7.4-20.2a21.54,21.54,0,0,0-4.15-3.27,29.43,29.43,0,0,0-10-3.84h0a44,44,0,0,0-8.13-.82h-1.47c-5.92.09-11.15.72-14.21,1.73l-2.4.79v54.14h18.58a36.17,36.17,0,0,0,5.39-.39h0a30.85,30.85,0,0,0,5.42-1.27h0a27.82,27.82,0,0,0,5.06-2.23A21.51,21.51,0,0,0,1437.06,332.71Zm-29.3-43.82a64.15,64.15,0,0,1,11-.82,34.16,34.16,0,0,1,9.74,1.37q8.35,2.58,11.38,10a25.72,25.72,0,0,1,1.7,9.78c0,6-1.75,11-5,14.66a17.81,17.81,0,0,1-3.85,3.32,24.48,24.48,0,0,1-13.46,3.55h-11.58Zm60,115.37-.69-1.48a20.77,20.77,0,0,1-.8-2c-.5-1.39-1-3.14-1.56-5.18-.86-3.24-1.79-7.25-2.79-11.83-.85-3.94-1.76-8.32-2.72-13-.1-.51-.21-1-.32-1.55l-.36-1.79a74,74,0,0,0-2.49-9.46c-.11-.32-.23-.64-.34-.95h0c-2.53-7-6-12.15-10.48-15.57,9.09-5.4,15.16-14.28,17.28-25.2a46.38,46.38,0,0,0,.85-8.95c0-1.11,0-2.22-.11-3.3-.63-9.79-4.08-18.28-9.85-24.16-.39-.41-.78-.8-1.19-1.18l-.06-.05a33.7,33.7,0,0,0-9-6.1c-6.61-3.07-14.84-4.5-25.33-4.5-3,0-6,.08-8.88.24-4.68.25-9.21.69-13.26,1.29-2.33.34-4.5.74-6.45,1.19l-.52.11-.44.1-2.26.54V407.76h21.75V350.65h10.32c5.79.27,10.26,1.65,13.67,6.37.15.2.29.4.43.62a35.34,35.34,0,0,1,4.46,11.27c.35,1.4.67,2.91,1,4.53,3.78,19.32,6.08,28.7,7.93,32.39l1,1.93h22.91Zm-16.75-3.5c-2-5.69-4.62-18.78-6.55-28.63-.2-1.07-.41-2.11-.63-3.13a54.15,54.15,0,0,0-3.57-11.26,23.74,23.74,0,0,0-7.2-9.37,20.33,20.33,0,0,0-5.19-2.87,30,30,0,0,0-9.58-1.85h-17.55v57.11H1393V277l1-.18.41-.08h0l.44-.07a127.44,127.44,0,0,1,14.09-1.49c2.15-.12,4.35-.2,6.56-.23l2.32,0c8,0,14.41.88,19.65,2.77h0c.56.19,1.09.41,1.62.63a28.64,28.64,0,0,1,3.19,1.57,24.77,24.77,0,0,1,3,2,25.87,25.87,0,0,1,3.08,2.75c5.08,5.16,8,13.39,8,22.58s-3.07,17.41-8.57,23.21a28.69,28.69,0,0,1-7.92,5.9c-.9.46-1.84.88-2.81,1.26l-2.23.87v5.35l2.2.88c5,2,8.77,6.3,11.52,13.12a61.14,61.14,0,0,1,3.13,10.92c0,.11,0,.22.07.33,2.25,11.12,4.18,20.38,5.93,27.14.42,1.66.84,3.17,1.25,4.52Zm-14-68.05c7.26-4.93,11.55-13.19,11.55-23.5,0-8.58-2.57-15.42-7.4-20.2a21.54,21.54,0,0,0-4.15-3.27,29.43,29.43,0,0,0-10-3.84h0a44,44,0,0,0-8.13-.82h-1.47c-5.92.09-11.15.72-14.21,1.73l-2.4.79v54.14h18.58a36.17,36.17,0,0,0,5.39-.39h0a30.85,30.85,0,0,0,5.42-1.27h0a27.82,27.82,0,0,0,5.06-2.23A21.51,21.51,0,0,0,1437.06,332.71Zm-29.3-43.82a64.15,64.15,0,0,1,11-.82,34.16,34.16,0,0,1,9.74,1.37q8.35,2.58,11.38,10a25.72,25.72,0,0,1,1.7,9.78c0,6-1.75,11-5,14.66a17.81,17.81,0,0,1-3.85,3.32,24.48,24.48,0,0,1-13.46,3.55h-11.58Zm33.45.12a21.54,21.54,0,0,0-4.15-3.27,29.43,29.43,0,0,0-10-3.84h0a44,44,0,0,0-8.13-.82h-1.47c-5.92.09-11.15.72-14.21,1.73l-2.4.79v54.14h18.58a36.17,36.17,0,0,0,5.39-.39h0a30.85,30.85,0,0,0,5.42-1.27h0a27.82,27.82,0,0,0,5.06-2.23,21.51,21.51,0,0,0,1.83-1.14c7.26-4.93,11.55-13.19,11.55-23.5C1448.61,300.63,1446,293.79,1441.21,289Zm-33.45-.12a64.15,64.15,0,0,1,11-.82,34.16,34.16,0,0,1,9.74,1.37q8.35,2.58,11.38,10a25.72,25.72,0,0,1,1.7,9.78c0,6-1.75,11-5,14.66a17.81,17.81,0,0,1-3.85,3.32,24.48,24.48,0,0,1-13.46,3.55h-11.58Zm54.75,27.32.74-12.25c-.63-9.79-4.08-18.28-9.85-24.16-.39-.41-.78-.8-1.19-1.18H1452c-1.08.55-2.16,1.09-3.25,1.62a27.3,27.3,0,0,0-2.18-1.71l-4.15-.09c0,.5-.11,1-.17,1.5a24.77,24.77,0,0,1,3,2,25.87,25.87,0,0,1,3.08,2.75c5.08,5.16,8,13.39,8,22.58s-3.07,17.41-8.57,23.21a28.69,28.69,0,0,1-7.92,5.9c-.9.46-1.84.88-2.81,1.26l-2.23.87v5.35l2.2.88c5,2,8.77,6.3,11.52,13.12a61.14,61.14,0,0,1,3.13,10.92c0,.11,0,.22.07.33l3.58,0,3.57,0-.36-1.79a74,74,0,0,0-2.49-9.46c-.11-.32-.23-.64-.34-.95h0c-2.53-7-6-12.15-10.48-15.57C1454.32,336,1460.39,327.13,1462.51,316.21Zm-21.3-27.2a21.54,21.54,0,0,0-4.15-3.27,29.43,29.43,0,0,0-10-3.84h0a44,44,0,0,0-8.13-.82h-1.47c-5.92.09-11.15.72-14.21,1.73l-2.4.79v54.14h18.58a36.17,36.17,0,0,0,5.39-.39h0a30.85,30.85,0,0,0,5.42-1.27h0a27.82,27.82,0,0,0,5.06-2.23,21.51,21.51,0,0,0,1.83-1.14c7.26-4.93,11.55-13.19,11.55-23.5C1448.61,300.63,1446,293.79,1441.21,289Zm-33.45-.12a64.15,64.15,0,0,1,11-.82,34.16,34.16,0,0,1,9.74,1.37q8.35,2.58,11.38,10a25.72,25.72,0,0,1,1.7,9.78c0,6-1.75,11-5,14.66a17.81,17.81,0,0,1-3.85,3.32,24.48,24.48,0,0,1-13.46,3.55h-11.58Z"/><path class="cls-7" d="M1576.61,391.12l-.57-10.48-.53-9.95-.61-11.22L1572,306.3l-1.54-28.41-.08-1.49-.21-3.95h-18.82l-1.87,5.85-2.4,7.55-1.22,3.81L1531,336.2q-1,3.14-1.87,6.17c-1.72,5.73-3.3,11.2-4.74,16.45q-1.59,5.76-2.94,11.18c-.91,3.62-1.73,7.14-2.48,10.59h-.51q-1.11-5.25-2.41-10.66t-2.83-11.25c-1.88-7.15-4-14.61-6.29-22.48l-12.69-41.51-4-12.91-.88-2.88-2-6.45h-18.81l-.38,6.36-4.8,79.23-.51,8.44h0l-.16,2.75-.88,14.51-.74,12.19-.5,8.32h14.07l1.12-20.8.76-14,.6-11.2.57-10.48c1-19.75,1.86-41.85,2.2-58.28h.34c3.22,15.65,7.8,32.66,13.22,51.24l5.24,17.79,3.31,11.26,9.93,33.72h11.19l10.51-33.32,3.52-11.16,1.08-3.44h0l5.06-16c5.14-16.23,9.48-31.06,13.11-45,.45-1.69.87-3.36,1.29-5h.51c0,2.09,0,4.27,0,6.52.09,15.47,1,34.34,1.71,50.39l.64,12.92.56,11.22,1,21.12.63,12.63h14.41Z"/><path class="cls-7" d="M1550,288.1a3.33,3.33,0,0,1-.4.16c-.84-.79-1.68-1.59-2.5-2.41l-1.22,3.81h0l-1.22.4-.41.13-1,.3-1.47.42-14.12,44.26-1.09,3.57c-2.24,7.4-4.15,14-5.8,20-.72,2.6-1.38,5.1-2,7.51q-.9-3.65-1.92-7.56c-1.83-7-4-14.74-6.57-23.55l-9.87-32.27-5.66-18.52-.19-.11c-.68-.37-1.36-.76-2-1.16s-1.49-.87-2.23-1.34l-.88-2.88h-3.53l-.16-.11,0,.11,2.36,7.71h0l15.47,50.56c2.32,7.95,4.3,15,6,21.45,1,4,2,7.69,2.86,11.25,1,4,1.82,7.78,2.59,11.43l.58,2.78h6.17l.6-2.76c.78-3.57,1.65-7.31,2.66-11.29.88-3.51,1.86-7.21,3-11.17s2.33-8.27,3.69-12.85q1.24-4.18,2.64-8.76l15.54-48.71.15-.47Zm-70.36-13.87c-.73-.58-1.46-1.17-2.19-1.78h-8.79l-.38,6.36q-1.76,0-3.51,0L1463.25,304l-.74,12.25L1460,358l-.26,4.22h0l3.25,4.25h0l2.13,2.78,1.12,1.47.09-1.45.68-11.2,4.79-79.25L1472,276h9.89l-.12-.1C1481,275.33,1480.34,274.79,1479.65,274.23Zm101,126.53-.5-9.22-.56-10.47-.56-10.33v-.14l-.6-11.08-2.74-50.8L1574,277.81l-.22-4-.26-4.87h-24.68l-3,9.42-1.5,4.67h0l-2.51,7.87-14.12,44.26-1.09,3.57c-2.24,7.4-4.15,14-5.8,20-.72,2.6-1.38,5.1-2,7.51q-.9-3.65-1.92-7.56c-1.83-7-4-14.74-6.57-23.55l-9.87-32.27-5.66-18.52-1.68-5.5-3-9.94h-24.7l-.16,2.68-.43,7.15L1463.25,304l-.74,12.25L1460,358l-.26,4.22h0l-.42,7-.09,1.54-.8,13.25-.74,12.25-.28,4.52-.42,7h21.11l1.08-20h0l1-18.32.6-11.21.56-10.34c.56-10.95,1.06-22.32,1.45-33,2.08,7.95,4.53,16.75,7.46,26.78l4.93,16.76,3.31,11.25,11,37.27h16.37l11.6-36.77,3.47-11,0-.17,5.82-18.45c3.11-9.81,5.9-19,8.41-27.8.34,11.4.89,23.31,1.37,33.75l.63,12.71.56,11.22.76,15.23,1.1,22.07H1581Zm-14.39,0-.15-3.07h0l-1.36-27.13-.56-11.22-.65-13.13c-.68-14.75-1.5-32.46-1.68-47.37,0-3.26,0-6.39,0-9.33l0-3.54h-6.77l-.67,2.64c-.28,1.1-.56,2.2-.85,3.32-3.65,14.18-8.08,29.45-13.5,46.55l-4.23,13.42h0l-2.23,7-3.52,11.17L1520.68,400h-6l-8.88-30.17-3.32-11.26-5.54-18.82c-6.24-21.39-10.3-37.11-13.15-51l-.58-2.79h-6.62l-.07,3.43c-.33,16.13-1.15,37.88-2.19,58.16l-.57,10.62-.61,11.21-.53,9.76-1.17,21.62h-7l.31-5.18,1.5-24.83h0l.09-1.45.68-11.2,4.79-79.25L1472,276h12.93l.87,2.84,0,.11,2.36,7.71h0l15.47,50.56c2.32,7.95,4.3,15,6,21.45,1,4,2,7.69,2.86,11.25,1,4,1.82,7.78,2.59,11.43l.58,2.78h6.17l.6-2.76c.78-3.57,1.65-7.31,2.66-11.29.88-3.51,1.86-7.21,3-11.17s2.33-8.27,3.69-12.85q1.24-4.18,2.64-8.76l15.54-48.71.15-.47h0l3.14-9.83.73-2.29h12.94l.11,2,0,.85,1.35,24.94,3,55.68.6,11.21h0l1.09,20.07.54,10Zm-84.51-124.91c-.7-.52-1.39-1.06-2.08-1.62s-1.47-1.17-2.19-1.78h-.18L1477,272c-.71-.6-1.42-1.22-2.12-1.84-.47-.41-.93-.83-1.39-1.25h-3.55c-1.54.9-3.11,1.8-4.69,2.68l-.43,7.15L1463.25,304l-.74,12.25L1460,358l-.26,4.22h0l3.25,4.25h0l2.13,2.78,1.12,1.47.09-1.45.68-11.2,4.79-79.25L1472,276h9.89ZM1550,288.1a3.33,3.33,0,0,1-.4.16c-.84-.79-1.68-1.59-2.5-2.41l-1.22,3.81h0l-1.22.4-.41.13-1,.3-1.47.42-14.12,44.26-1.09,3.57c-2.24,7.4-4.15,14-5.8,20-.72,2.6-1.38,5.1-2,7.51q-.9-3.65-1.92-7.56c-1.83-7-4-14.74-6.57-23.55l-9.87-32.27-5.66-18.52-.19-.11c-.68-.37-1.36-.76-2-1.16s-1.49-.88-2.23-1.34l-.88-2.88h-3.53l-.16-.11,0,.11,2.36,7.71h0l15.47,50.56c2.32,7.95,4.3,15,6,21.45,1,4,2,7.69,2.86,11.25,1,4,1.82,7.78,2.59,11.43l.58,2.78h6.17l.6-2.76c.78-3.57,1.65-7.31,2.66-11.29.88-3.51,1.86-7.21,3-11.17s2.33-8.27,3.69-12.85q1.24-4.18,2.64-8.76l15.54-48.71.15-.47h0Z"/><path class="cls-7" d="M1668.16,403.69l-3.5-11.84-5.94-20.09-3.33-11.26-7.34-24.83-17.54-59.29-1.16-3.93h-17.8l-1.32,4.47-12.92,43.9-11.42,38.79-3.29,11.17-3,10.29-3,10.05-3.87,13.14H1588l9.53-33.29,2.34-8.17h40.51l2.58,8.76,9.62,32.7h15.76Zm-48.3-116.19h.34c1.69,7.63,3.39,15.45,5.93,24.06l6.36,21.56,4.83,16.38h-34.41l6.84-23.32,4.34-14.82C1616.3,303.34,1618.16,295.33,1619.86,287.5Z"/><path class="cls-7" d="M1636.38,333.93l-6.89-23.36c-2.36-8-4-15.31-5.56-22.41L1623,284h-6l-.6,2.76c-2,9.26-3.82,16.78-5.7,23.62l-4.26,14.51L1598.23,353H1642ZM1607.58,346l5.45-18.59,4.44-15.12c.86-3.14,1.71-6.4,2.56-9.89.81,3.28,1.71,6.65,2.74,10.15l5.79,19.63,4.07,13.82Zm28.8-12.07-6.89-23.36c-2.36-8-4-15.31-5.56-22.41L1623,284h-6l-.6,2.76c-2,9.26-3.82,16.78-5.7,23.62l-4.26,14.51L1598.23,353H1642ZM1607.58,346l5.45-18.59,4.44-15.12c.86-3.14,1.71-6.4,2.56-9.89.81,3.28,1.71,6.65,2.74,10.15l5.79,19.63,4.07,13.82Zm64.4,58.26-3.82-12.93-3.5-11.83-2.28-7.69-3.32-11.26L1651.79,336l-17.66-59.72L1632,269h-23l-2.38,8.07-12.44,42.25-11.86,40.29-3.25,11,0,.13-2.92,9.91-3,10.08-3,10-.69,2.34-.34,1.16-1,3.5h22.57L1601.15,371l1.35-4.72h35.25l1.53,5.21L1650,407.76H1673Zm-16.79-3.5-8.58-29.16-3.31-11.25-.31-1.05h-45.77l-.13.46-3.2,11.17-8.54,29.83h-7.93l2.71-9.22,6.1-20.71,3.29-11.17,11-37.35,13.39-45.49.26-.87h12.57l.16.53,17.37,58.75,7.46,25.23,3.33,11.25,8.59,29.05Zm-25.7-90.19c-2.36-8-4-15.31-5.56-22.41L1623,284h-6l-.6,2.76c-2,9.26-3.82,16.78-5.7,23.62l-4.26,14.51L1598.23,353H1642l-5.62-19.07ZM1607.58,346l5.45-18.59,4.44-15.12c.86-3.14,1.71-6.4,2.56-9.89.81,3.28,1.71,6.65,2.74,10.15l5.79,19.63,4.07,13.82Zm28.8-12.07-6.89-23.36c-2.36-8-4-15.31-5.56-22.41L1623,284h-6l-.6,2.76c-2,9.26-3.82,16.78-5.7,23.62l-4.26,14.51L1598.23,353H1642ZM1607.58,346l5.45-18.59,4.44-15.12c.86-3.14,1.71-6.4,2.56-9.89.81,3.28,1.71,6.65,2.74,10.15l5.79,19.63,4.07,13.82Zm28.8-12.07-6.89-23.36c-2.36-8-4-15.31-5.56-22.41L1623,284h-6l-.6,2.76c-2,9.26-3.82,16.78-5.7,23.62l-4.26,14.51L1598.23,353H1642ZM1607.58,346l5.45-18.59,4.44-15.12c.86-3.14,1.71-6.4,2.56-9.89.81,3.28,1.71,6.65,2.74,10.15l5.79,19.63,4.07,13.82Z"/><path class="cls-7" d="M1740,272.45v55.14c0,12.56.13,23.43.53,34,.15,3.76.33,7.48.56,11.22.17,3,.38,5.93.61,8.95l-.34.19c-1.22-3-2.5-6.09-3.86-9.19q-2.41-5.55-5.15-11.28c-3.42-7.15-7.22-14.56-11.5-22.36l-7.38-13.45L1685.64,275l-1.37-2.5h-16.11V404.26h13.9V347.93c0-4.76,0-9.23,0-13.49-.12-15.33-.47-27.86-1.13-40.87l.5-.2a405.32,405.32,0,0,0,17.7,37.18q1.82,3.42,3.66,6.82l13,23.91,6.13,11.29L1739,404.26h14.92V272.45Z"/><path class="cls-7" d="M1745.21,381.5c-.22-2.92-.42-5.79-.58-8.64-.23-3.77-.41-7.5-.56-11.22-.43-11-.54-22-.54-34.05V297.87c-.45-.55-.9-1.11-1.34-1.67s-.69-.86-1-1.29-.76-1-1.14-1.47c-.59-.78-1.19-1.55-1.77-2.34s-1.1-1.48-1.64-2.23l-.09-.13v38.85c0,12,.12,23,.54,34,0,.61,0,1.22.07,1.83-.28-.61-.57-1.22-.86-1.84l-3.9-.05-3.91-.05c1.84,3.81,3.58,7.56,5.22,11.28q2.36,5.31,4.45,10.55l1.5,3.74,5.74-3.31ZM1736.53,269v58.64c0,12,.12,23,.54,34,0,.61,0,1.22.07,1.83-.28-.61-.57-1.22-.86-1.84-3.68-7.78-7.77-15.77-12.33-24.09l-7.18-13.07-27.19-49.53-3.24-5.9h-21.68V407.76h20.9V347.93c0-5,0-9.68-.06-14.12-.07-8.46-.21-16.05-.43-23.32,3,6.45,6.52,13.39,10.55,21,1.29,2.44,2.64,4.94,4,7.53l12,22.19,6.13,11.29,19.11,35.24h20.5V269Zm13.9,131.81h-9.33l-15.26-28.14-6.12-11.29-13.9-25.63c-1.15-2.11-2.25-4.17-3.32-6.17a398,398,0,0,1-17.87-37.47l-1.29-3.19-6.09,2.34.13,2.54c.67,13.05,1,25.61,1.13,41.23,0,4.09,0,8.38,0,12.95v52.83h-6.9V276h10.53l28,51,7.62,13.88c3.89,7.1,7.43,13.94,10.66,20.62,1.84,3.81,3.58,7.56,5.22,11.28q2.36,5.31,4.45,10.55l1.5,3.74,5.74-3.31-.17-2.2c-.22-2.92-.42-5.79-.58-8.64-.23-3.77-.41-7.5-.56-11.22-.43-11-.54-22-.54-34.05V276h6.9Zm-5.22-19.26c-.22-2.92-.42-5.79-.58-8.64-.23-3.77-.41-7.5-.56-11.22-.43-11-.54-22-.54-34.05V297.87c-.45-.55-.9-1.11-1.34-1.67s-.69-.86-1-1.29-.76-1-1.14-1.47c-.59-.78-1.19-1.55-1.77-2.34s-1.1-1.48-1.64-2.23l-.09-.13v38.85c0,12,.12,23,.54,34,0,.61,0,1.22.07,1.83-.28-.61-.57-1.22-.86-1.84l-3.9-.05-3.91-.05c1.84,3.81,3.58,7.56,5.22,11.28q2.36,5.31,4.45,10.55l1.5,3.74,5.74-3.31Z"/><rect class="cls-19" x="1486.23" y="101.9" width="11.21" height="524.23" transform="matrix(0.01, -1, 1, 0.01, 1108.69, 1851.05)"/><path class="cls-23" d="M1285.61,113.48c-.31-1.32-.57-2.7-.86-4s-.58-2.64-1-4c4.61-.18,9-1,13.69-.52s8.24,3.19,11.51,6.42c-4-1.86-6.59-3.34-11-2.36S1289.78,112,1285.61,113.48Z"/><circle class="cls-24" cx="1276.23" cy="112.15" r="10.6"/><ellipse class="cls-25" cx="1258.51" cy="114.52" rx="13.72" ry="13.69"/><circle class="cls-26" cx="1239.84" cy="116.08" r="15.84"/><circle class="cls-27" cx="1222.14" cy="113.44" r="16.8"/><ellipse class="cls-28" cx="1203.63" cy="102" rx="20.32" ry="19.47"/><circle class="cls-19" cx="1194.37" cy="90.18" r="8.64"/><circle cx="1191.25" cy="87.06" r="3.11"/><circle class="cls-19" cx="1201.97" cy="94.29" r="8.64"/><circle cx="1198.93" cy="91.09" r="3.11"/><path class="cls-18" d="M1198.93,110.83l.44,1.42c5.15-.63,9-4,8.7-7.8C1208.07,104.45,1207.32,110,1198.93,110.83Z"/><path class="cls-29" d="M1160.18,353.47a23.93,23.93,0,0,0-3.58-8.93c-5.63,8.45-11.88,16.34-11.88,16.34s4.13-9.86,9.34-19.46c-4-4-9.6-6.66-16.77-7.75-5.16,7.53-10.33,14.05-10.33,14.05s2.82-6.72,6.73-14.46a68.28,68.28,0,0,0-13.65.47c-16.11,2.08-31,9.92-29.7,20-19.84.74-41.29,3-57.87,3.65-17.31.67-63.24-16.85-96-21.13-39.76-5.19,53.34,27.56,57.19,31.39,4.26,4.22,80.59,11.29,123.67,8.89,2.83.31,5.72-.21,10.15-.65C1139.29,374.69,1163.05,368.64,1160.18,353.47Z"/><path class="cls-29" d="M1142.29,326a262.94,262.94,0,0,0,13.27-26A236.9,236.9,0,0,0,1139,323.53c-1.87,3.15-3.67,6.53-5.29,9.73,1.24.1,2.44.23,3.6.41C1139,331.15,1140.75,328.52,1142.29,326Z"/><path class="cls-29" d="M1137.29,333.67c-1.16-.18-2.36-.31-3.6-.41-3.91,7.74-6.73,14.46-6.73,14.46S1132.13,341.2,1137.29,333.67Z"/><path class="cls-29" d="M1160,339.14a262.94,262.94,0,0,0,13.27-26,237.18,237.18,0,0,0-16.57,23.56c-.92,1.54-1.81,3.13-2.68,4.73a21.77,21.77,0,0,1,2.54,3.12C1157.79,342.74,1159,340.92,1160,339.14Z"/><path class="cls-29" d="M1156.6,344.54a21.77,21.77,0,0,0-2.54-3.12c-5.21,9.6-9.34,19.46-9.34,19.46S1151,353,1156.6,344.54Z"/><path class="cls-30" d="M998.59,314.77c16.31-33.15,34.82-42.79,61.63-35.8s41,6.09,45.67,45.56-33.37,47.17-70.65,40.36S982.27,347.93,998.59,314.77Z"/><circle class="cls-19" cx="1152.06" cy="301.54" r="11.67"/><path class="cls-18" d="M1143.85,360l-.53,1.94c-7-.61-12.34-5-12.1-10.11C1131.22,351.87,1132.49,359.37,1143.85,360Z"/><circle class="cls-19" cx="1174" cy="311.2" r="11.67"/><circle class="cls-18" cx="1152.99" cy="299.1" r="3.8"/><circle class="cls-18" cx="1175.45" cy="309.26" r="3.8"/><path class="cls-30" d="M1140.74,297.93s2.79-4.6,13-1.23,9.74,8.73,9.74,8.73a12,12,0,0,0-22.75-7.5Z"/><path class="cls-30" d="M1162.64,307.58s2.78-4.6,13-1.23,9.74,8.73,9.74,8.73a12,12,0,0,0-22.75-7.5Z"/><path d="M1005.78,355.16c-6.33-12.75-7.1-26.76-2.17-39.46,5-12.93,15.33-22.94,29-28.17,22.4-8.56,49.21,1.76,59.77,23a31.21,31.21,0,0,1,1.4,25.47,31.79,31.79,0,0,1-18.72,18.18c-14.45,5.53-31.75-1.14-38.57-14.86a20.22,20.22,0,0,1-.9-16.51,20.62,20.62,0,0,1,12.13-11.78c9.37-3.58,20.58.74,25,9.63a13.21,13.21,0,0,1,.59,10.78,13.46,13.46,0,0,1-7.91,7.69,13.27,13.27,0,0,1-16.31-6.28,8.7,8.7,0,0,1-.38-7.12,8.84,8.84,0,0,1,5.21-5.07,8.75,8.75,0,0,1,10.75,4.15l-1.26.66a7.33,7.33,0,0,0-9-3.46,7.43,7.43,0,0,0-4.38,4.24,7.25,7.25,0,0,0,.34,5.93,11.85,11.85,0,0,0,14.57,5.61A12.07,12.07,0,0,0,1072,331a11.82,11.82,0,0,0-.54-9.6,19,19,0,0,0-23.27-9,19.22,19.22,0,0,0-11.3,11,18.8,18.8,0,0,0,.86,15.33c6.5,13.09,23,19.46,36.84,14.18a30.43,30.43,0,0,0,17.89-17.35,29.81,29.81,0,0,0-1.35-24.29c-10.25-20.64-36.29-30.66-58.05-22.34-13.3,5.08-23.31,14.79-28.18,27.34-4.79,12.3-4,25.9,2.12,38.28Z"/></svg>