<svg id="Layer_1" data-name="Layer 1" xmlns="http://www.w3.org/2000/svg" viewBox="0 0 383.85 385.22"><defs><style>.cls-1{fill:#001400;}.cls-2{fill:#fde2c7;}.cls-3{fill:#593825;}.cls-4{fill:#9d7b85;}.cls-5{fill:#b18a96;}</style></defs><path class="cls-1" d="M184.54,380.53C81.14,374.76.7,309.27,4.88,234.24S100.52,27,203.93,32.75,383.52,180.09,379.34,255.11,287.94,386.29,184.54,380.53Z"/><path class="cls-2" d="M191.14,321C116.69,321,56.3,267,56.25,200.36S116.47,12,190.92,11.94,325.81,133.49,325.85,200.17,265.59,320.93,191.14,321Z"/><path class="cls-1" d="M311.3,147.15c21.11-20.12,19-56.63-4.78-81.55s-99.85-70.5-121-50.38,20.76,98.33,44.52,123.25S290.19,167.28,311.3,147.15Z"/><path class="cls-1" d="M70.77,147.15C49.65,127,51.79,90.52,75.54,65.6s99.86-70.5,121-50.38S175.75,113.55,152,138.47,91.88,167.28,70.77,147.15Z"/><path class="cls-3" d="M194.51,190s3.85-20.47,31.16-20.47S256.86,190,256.86,190a31.18,31.18,0,0,0-62.35,0Z"/><path class="cls-3" d="M117.44,190s3.84-20.47,31.15-20.47S179.78,190,179.78,190a31.17,31.17,0,1,0-62.34,0Z"/><path class="cls-4" d="M155.32,240.65s3.21,10.49,32,10.49,32-10.49,32-10.49c0,13.23-14.32,24-32,24S155.32,253.88,155.32,240.65Z"/><path class="cls-5" d="M225.68,245.4c0-3.31-18.46-11.28-26.13-11.28-3.13,0-7.87,1.42-12.38,3.28-4.86-1.87-10-3.28-13.21-3.28-7.68,0-25,8.54-25,11.28a1.62,1.62,0,0,0,.43.94c9.32,4.43,24,7.54,36.81,7.81s26.93-2.19,37-6C224.75,247.1,225.68,246.13,225.68,245.4Z"/></svg>